<svg width="185" height="61" viewBox="0 0 185 61" fill="none" xmlns="http://www.w3.org/2000/svg">
<path d="M30.1623 0H0V10.1547H30.1623V0Z" fill="white"/>
<path d="M10.0541 10.1541H0V60.4327H10.0541V10.1541Z" fill="white"/>
<path d="M30.1379 50.3711H10.0625V60.4329H30.1379V50.3711Z" fill="white"/>
<path d="M30.1373 60.4246V50.3704H30.1172C30.1715 50.3704 35.653 50.292 40.8831 47.6156C47.3721 44.2957 50.5351 38.6192 50.5351 30.2622C50.5351 21.9052 47.3861 16.2287 40.9053 12.9088C35.6771 10.2324 30.2097 10.154 30.1554 10.154H30.1775V0.0998535C30.4832 0.0998535 37.7845 0.142081 45.0998 3.76357C49.5779 5.97548 53.1653 9.06209 55.7572 12.9229C58.9584 17.6765 60.5832 23.5099 60.5832 30.2622C60.5832 37.0145 58.9584 42.85 55.7572 47.6035C53.1552 51.4643 49.5619 54.5449 45.0797 56.7628C37.7503 60.3823 30.445 60.4246 30.1373 60.4246Z" fill="white"/>
<path d="M120.657 0.0998535H60.332V10.154H120.657V0.0998535Z" fill="white"/>
<path d="M185 0.0998535H124.676V10.154H185V0.0998535Z" fill="white"/>
<path d="M95.9441 10.1541H85.8438V60.4246H95.9441V10.1541Z" fill="white"/>
<path d="M134.671 10.1541H124.57V60.4246H134.671V10.1541Z" fill="white"/>
<path d="M124.676 25.1889V35.2893H174.946V25.1889L124.676 25.1889Z" fill="white"/>
<path d="M124.676 50.3479V60.4482L184.9 60.4482V50.3479H124.676Z" fill="white"/>
</svg>
