<svg width="56" height="18" viewBox="0 0 56 18" fill="none" xmlns="http://www.w3.org/2000/svg">
<path d="M8.98158 0H0V3.0238H8.98158V0Z" fill="white"/>
<path d="M2.99386 3.02368H0V17.9954H2.99386V3.02368Z" fill="white"/>
<path d="M8.97424 14.9992H2.99609V17.9955H8.97424V14.9992Z" fill="white"/>
<path d="M8.97474 17.993V14.9992H8.96875C8.98492 14.9992 10.6172 14.9758 12.1746 14.1789C14.1068 13.1903 15.0487 11.5 15.0487 9.01146C15.0487 6.52296 14.111 4.83263 12.1812 3.84406C10.6244 3.04709 8.99629 3.02374 8.98013 3.02374H8.98671V0.0298767C9.07773 0.0298767 11.2519 0.0424509 13.4302 1.12084C14.7637 1.77949 15.8319 2.6986 16.6037 3.84825C17.5569 5.26374 18.0408 7.00078 18.0408 9.01146C18.0408 11.0221 17.5569 12.7598 16.6037 14.1753C15.8289 15.3249 14.7589 16.2422 13.4242 16.9027C11.2417 17.9805 9.06635 17.993 8.97474 17.993Z" fill="white"/>
<path d="M35.928 0.0298767H17.9648V3.02374H35.928V0.0298767Z" fill="white"/>
<path d="M55.0882 0.0298767H37.125V3.02374H55.0882V0.0298767Z" fill="white"/>
<path d="M28.5701 3.02368H25.5625V17.993H28.5701V3.02368Z" fill="white"/>
<path d="M40.1014 3.02368H37.0938V17.993H40.1014V3.02368Z" fill="white"/>
<path d="M37.125 7.50079V10.5084L52.0943 10.5084V7.50079L37.125 7.50079Z" fill="white"/>
<path d="M37.125 14.9924V18H55.0582V14.9924H37.125Z" fill="white"/>
</svg>
