<svg width="370" height="76" viewBox="0 0 370 76" fill="none" xmlns="http://www.w3.org/2000/svg">
<path d="M13.1349 58.0691C9.47457 58.022 6.36739 56.7273 3.81337 54.1851C1.27112 51.6429 0 48.5123 0 44.7931C0 41.0857 1.27701 37.9727 3.83102 35.454C6.38504 32.9236 9.48634 31.6584 13.1349 31.6584C14.3708 31.6584 15.536 31.7879 16.6305 32.0468C17.7369 32.3057 18.7255 32.6823 19.5965 33.1767C20.4792 33.6592 21.1972 34.1771 21.7503 34.7302C22.3153 35.2834 22.5977 35.56 22.5977 35.56L20.4792 37.7314C20.4792 37.7314 20.232 37.4902 19.7377 37.0076C19.2434 36.5251 18.6667 36.1014 18.0076 35.7365C17.3485 35.3599 16.6129 35.0715 15.8008 34.8715C15.0004 34.6714 14.1354 34.5713 13.2056 34.5713C10.3573 34.5713 7.96217 35.5188 6.02018 37.4137C4.08996 39.3085 3.12484 41.7684 3.12484 44.7931C3.12484 47.8061 4.09584 50.2895 6.03784 52.2432C7.97983 54.1851 10.3514 55.1561 13.1526 55.1561C15.8008 55.1561 17.9664 54.4264 19.6494 52.967C21.3325 51.4958 22.2741 49.4597 22.4742 46.8587H13.2762V44.0163H25.5284L25.5637 45.923C25.5637 49.5009 24.3985 52.4197 22.0681 54.6795C19.7377 56.9392 16.76 58.0691 13.1349 58.0691Z" fill="#272727"/>
<path d="M30.0797 57.5041V32.2233H38.6597C40.8842 32.2233 42.7615 32.9295 44.2915 34.3418C45.8216 35.7424 46.5866 37.5431 46.5866 39.744C46.5866 42.0155 45.8098 43.8692 44.2562 45.3051C42.7026 46.7292 40.6371 47.4412 38.0595 47.4412H31.7039V44.5813H38.4655C39.8544 44.5813 41.0372 44.134 42.0141 43.2396C42.991 42.3451 43.4794 41.1799 43.4794 39.744C43.4794 38.4141 43.0086 37.3136 42.0671 36.4427C41.1373 35.5717 40.0074 35.1363 38.6774 35.1363H33.1516V57.5041H30.0797ZM44.0797 57.5041L36.4176 45.9759L39.7896 45.7994L47.8224 57.5041H44.0797Z" fill="#272727"/>
<path d="M60.6628 58.0691C57.8616 58.0691 55.6018 57.1569 53.8834 55.3327C52.1651 53.5084 51.3059 51.1133 51.3059 48.1474V32.2233H54.3778V48.271C54.3778 50.3895 54.9309 52.0666 56.0373 53.3024C57.1554 54.5382 58.6972 55.1561 60.6628 55.1561C62.6283 55.1561 64.1701 54.5441 65.2882 53.3201C66.4181 52.0843 66.9831 50.4013 66.9831 48.271V32.2233H70.0549V48.1474C70.0549 51.1839 69.2016 53.5967 67.495 55.3856C65.8002 57.1746 63.5228 58.0691 60.6628 58.0691Z" fill="#272727"/>
<path d="M75.973 57.5041V32.2233H84.4472C86.8717 32.2233 88.8196 32.9766 90.2908 34.4831C91.7738 35.9896 92.5153 37.9433 92.5153 40.3443C92.5153 42.7217 91.7562 44.6225 90.2379 46.0466C88.7314 47.4707 86.7305 48.1827 84.2353 48.1827H77.6326V45.3581H84.253C85.8066 45.3581 87.0542 44.9049 87.9958 43.9987C88.9373 43.0807 89.4081 41.8684 89.4081 40.3619C89.4081 38.8319 88.9491 37.5784 88.0311 36.6016C87.1248 35.6247 85.9184 35.1363 84.4119 35.1363H79.0449V57.5041H75.973Z" fill="#272727"/>
<path d="M109.039 58.0691C105.355 58.0691 102.266 56.8039 99.7707 54.2734C97.2756 51.7312 96.028 48.577 96.028 44.8108C96.028 41.0681 97.2756 37.9433 99.7707 35.4364C102.278 32.9177 105.367 31.6584 109.039 31.6584C112.688 31.6584 115.766 32.906 118.273 35.4011C120.78 37.8962 122.033 41.0328 122.033 44.8108C122.033 48.5535 120.785 51.7018 118.29 54.2558C115.807 56.798 112.723 58.0691 109.039 58.0691ZM109.039 55.1561C111.852 55.1561 114.2 54.1851 116.083 52.2432C117.967 50.3012 118.908 47.8238 118.908 44.8108C118.908 41.7978 117.955 39.338 116.048 37.4313C114.141 35.5247 111.805 34.5713 109.039 34.5713C106.25 34.5713 103.902 35.5306 101.995 37.449C100.1 39.3556 99.1528 41.8096 99.1528 44.8108C99.1528 47.8238 100.094 50.3012 101.978 52.2432C103.872 54.1851 106.226 55.1561 109.039 55.1561Z" fill="#272727"/>
<path d="M212.773 12.7732H244.867V75.9466H257.56V12.7732H288.612V0.138472H212.773V12.7732Z" fill="#272727"/>
<path d="M369.533 12.7732V0.138472H293.694V12.7732H293.56V75.9466H293.694V76H369.426V63.2852H306.253V44.3732H356.893V31.6584H306.253V12.7732H369.533Z" fill="#272727"/>
<path d="M193.614 4.72799C187.959 1.98756 181.822 0.381301 175.55 0H136.909V75.9684H175.176C181.561 75.6981 187.824 74.1351 193.587 71.3739C198.981 68.7839 203.591 64.8115 206.949 59.8611C211.134 53.3769 213.258 45.7781 213.042 38.0643C213.258 30.3505 211.134 22.7518 206.949 16.2675C203.612 11.3024 199.008 7.31853 193.614 4.72799ZM188.27 59.8611C184.04 61.9335 179.427 63.1068 174.721 63.307H149.549V12.7682H174.828C179.523 12.9827 184.125 14.1553 188.35 16.2141C196.5 20.4078 200.455 27.5399 200.455 38.0376C200.455 48.5353 196.473 55.6674 188.323 59.8611H188.27Z" fill="#272727"/>
</svg>
