<svg width="166" height="37" viewBox="0 0 166 37" fill="none" xmlns="http://www.w3.org/2000/svg">
<path d="M15.2218 19.052C15.2218 20.252 14.8658 21.208 14.1538 21.92C13.3538 22.768 12.3018 23.192 10.9978 23.192C9.74984 23.192 8.69384 22.76 7.82984 21.896C6.96584 21.032 6.53384 19.968 6.53384 18.704C6.53384 17.44 6.96584 16.376 7.82984 15.512C8.69384 14.648 9.74984 14.216 10.9978 14.216C11.6298 14.216 12.2258 14.328 12.7858 14.552C13.3458 14.776 13.8058 15.092 14.1658 15.5L13.3738 16.292C13.1098 15.972 12.7658 15.724 12.3418 15.548C11.9258 15.364 11.4778 15.272 10.9978 15.272C10.0618 15.272 9.26984 15.596 8.62184 16.244C7.98184 16.9 7.66184 17.72 7.66184 18.704C7.66184 19.688 7.98184 20.508 8.62184 21.164C9.26984 21.812 10.0618 22.136 10.9978 22.136C11.8538 22.136 12.5658 21.896 13.1338 21.416C13.7018 20.936 14.0298 20.276 14.1178 19.436H10.9978V18.404H15.1618C15.2018 18.628 15.2218 18.844 15.2218 19.052ZM17.2408 23H16.1368V17.12H17.1928V18.08H17.2408C17.3528 17.768 17.5808 17.504 17.9248 17.288C18.2768 17.064 18.6208 16.952 18.9568 16.952C19.2768 16.952 19.5488 17 19.7728 17.096L19.4368 18.164C19.3008 18.108 19.0848 18.08 18.7888 18.08C18.3728 18.08 18.0088 18.248 17.6968 18.584C17.3928 18.92 17.2408 19.312 17.2408 19.76V23ZM25.6562 23H24.6002V22.184H24.5522C24.3842 22.472 24.1242 22.712 23.7722 22.904C23.4282 23.096 23.0682 23.192 22.6922 23.192C21.9722 23.192 21.4162 22.988 21.0242 22.58C20.6402 22.164 20.4482 21.576 20.4482 20.816V17.12H21.5522V20.744C21.5762 21.704 22.0602 22.184 23.0042 22.184C23.4442 22.184 23.8122 22.008 24.1082 21.656C24.4042 21.296 24.5522 20.868 24.5522 20.372V17.12H25.6562V23ZM29.8801 22.184C30.4081 22.184 30.8521 21.984 31.2121 21.584C31.5721 21.192 31.7521 20.684 31.7521 20.06C31.7521 19.444 31.5721 18.936 31.2121 18.536C30.8521 18.136 30.4081 17.936 29.8801 17.936C29.3441 17.936 28.8961 18.136 28.5361 18.536C28.1841 18.936 28.0081 19.444 28.0081 20.06C28.0081 20.684 28.1841 21.196 28.5361 21.596C28.8961 21.988 29.3441 22.184 29.8801 22.184ZM30.0601 23.192C29.6281 23.192 29.2321 23.1 28.8721 22.916C28.5201 22.732 28.2481 22.488 28.0561 22.184H28.0081L28.0561 23V25.592H26.9521V17.12H28.0081V17.936H28.0561C28.2481 17.632 28.5201 17.388 28.8721 17.204C29.2321 17.02 29.6281 16.928 30.0601 16.928C30.8361 16.928 31.4921 17.232 32.0281 17.84C32.5801 18.456 32.8561 19.196 32.8561 20.06C32.8561 20.932 32.5801 21.672 32.0281 22.28C31.4921 22.888 30.8361 23.192 30.0601 23.192ZM33.5313 20.06C33.5313 19.156 33.8153 18.408 34.3833 17.816C34.9593 17.224 35.6833 16.928 36.5553 16.928C37.4273 16.928 38.1473 17.224 38.7153 17.816C39.2913 18.408 39.5793 19.156 39.5793 20.06C39.5793 20.972 39.2913 21.72 38.7153 22.304C38.1473 22.896 37.4273 23.192 36.5553 23.192C35.6833 23.192 34.9593 22.896 34.3833 22.304C33.8153 21.712 33.5313 20.964 33.5313 20.06ZM34.6353 20.06C34.6353 20.692 34.8193 21.204 35.1873 21.596C35.5553 21.988 36.0113 22.184 36.5553 22.184C37.0993 22.184 37.5553 21.988 37.9233 21.596C38.2913 21.204 38.4753 20.692 38.4753 20.06C38.4753 19.436 38.2913 18.928 37.9233 18.536C37.5473 18.136 37.0913 17.936 36.5553 17.936C36.0193 17.936 35.5633 18.136 35.1873 18.536C34.8193 18.928 34.6353 19.436 34.6353 20.06Z" fill="black"/>
<path d="M96.21 4.94987H82.6145V9.52702H96.21V4.94987Z" fill="black"/>
<path d="M87.1463 9.52703H82.6145V32.1898H87.1463V9.52703Z" fill="black"/>
<path d="M96.1956 27.6544H87.1465V32.1898H96.1956V27.6544Z" fill="black"/>
<path d="M96.1961 32.1862V27.6543H96.187C96.2115 27.6543 98.6822 27.619 101.04 26.4126C103.965 24.9162 105.39 22.3575 105.39 18.5907C105.39 14.8238 103.971 12.2652 101.05 10.7687C98.6931 9.56237 96.2287 9.52702 96.2042 9.52702H96.2142V4.99519C96.352 4.99519 99.643 5.01423 102.94 6.64659C104.959 7.6436 106.576 9.03487 107.744 10.7751C109.187 12.9177 109.919 15.5471 109.919 18.5907C109.919 21.6343 109.187 24.2645 107.744 26.4072C106.571 28.1474 104.952 29.536 102.931 30.5357C99.6276 32.1671 96.3347 32.1862 96.1961 32.1862Z" fill="black"/>
<path d="M136.997 4.99519H109.806V9.52702H136.997V4.99519Z" fill="black"/>
<path d="M166 4.99519H138.809V9.52702H166V4.99519Z" fill="black"/>
<path d="M125.864 9.52703H121.311V32.1862H125.864V9.52703Z" fill="black"/>
<path d="M143.317 9.52703H138.764V32.1862H143.317V9.52703Z" fill="black"/>
<path d="M138.809 16.3039V20.8566H161.468V16.3039H138.809Z" fill="black"/>
<path d="M138.809 27.6444V32.1971H165.955V27.6444H138.809Z" fill="black"/>
<path d="M63.6236 32.1971C71.1477 32.1971 77.2472 26.0976 77.2472 18.5735C77.2472 11.0494 71.1477 4.94987 63.6236 4.94987C56.0995 4.94987 50 11.0494 50 18.5735C50 26.0976 56.0995 32.1971 63.6236 32.1971Z" fill="#FF3500"/>
</svg>
