<svg width="107" height="26" viewBox="0 0 107 26" fill="none" xmlns="http://www.w3.org/2000/svg">
<path d="M42.6248 0.758224H30.0841V4.98024H42.6248V0.758224Z" fill="black"/>
<path d="M34.2643 4.98024H30.0841V25.8846H34.2643V4.98024Z" fill="black"/>
<path d="M42.6114 21.7011H34.2643V25.8846H42.6114V21.7011Z" fill="black"/>
<path d="M42.6114 25.8813V21.7011H42.603C42.6256 21.7011 44.9047 21.6685 47.0792 20.5557C49.7771 19.1754 51.0922 16.8152 51.0922 13.3407C51.0922 9.86607 49.783 7.50592 47.0884 6.12561C44.9147 5.01284 42.6415 4.98024 42.6189 4.98024H42.6281V0.800026C42.7552 0.800026 45.7909 0.817583 48.8324 2.32329C50.6942 3.24294 52.1857 4.52626 53.2634 6.13147C54.5944 8.10787 55.2699 10.5332 55.2699 13.3407C55.2699 16.1481 54.5944 18.5743 53.2634 20.5507C52.1816 22.1559 50.6876 23.4367 48.824 24.3589C45.7766 25.8637 42.7393 25.8813 42.6114 25.8813Z" fill="black"/>
<path d="M80.2467 0.800026H55.1654V4.98024H80.2467V0.800026Z" fill="black"/>
<path d="M107 0.800026H81.9187V4.98024H107V0.800026Z" fill="black"/>
<path d="M69.9776 4.98024H65.7781V25.8813H69.9776V4.98024Z" fill="black"/>
<path d="M86.0764 4.98024H81.8769V25.8813H86.0764V4.98024Z" fill="black"/>
<path d="M81.9179 11.2313V15.4308L102.819 15.4308V11.2313H81.9179Z" fill="black"/>
<path d="M81.9187 21.6919V25.8913H106.958V21.6919H81.9187Z" fill="black"/>
<path d="M12.5665 25.8913C19.5069 25.8913 25.1331 20.2651 25.1331 13.3248C25.1331 6.38446 19.5069 0.758224 12.5665 0.758224C5.62624 0.758224 0 6.38446 0 13.3248C0 20.2651 5.62624 25.8913 12.5665 25.8913Z" fill="#FF3500"/>
</svg>
