<svg width="384" height="76" viewBox="0 0 384 76" fill="none" xmlns="http://www.w3.org/2000/svg">
<path d="M13.1349 50.3975C9.47457 50.3505 6.36739 49.0558 3.81337 46.5136C1.27112 43.9714 0 40.8407 0 37.1216C0 33.4142 1.27701 30.3012 3.83102 27.7825C6.38504 25.2521 9.48634 23.9869 13.1349 23.9869C14.3708 23.9869 15.536 24.1163 16.6305 24.3753C17.7369 24.6342 18.7255 25.0108 19.5965 25.5051C20.4792 25.9877 21.1972 26.5055 21.7503 27.0587C22.3153 27.6119 22.5977 27.8884 22.5977 27.8884L20.4792 30.0599C20.4792 30.0599 20.232 29.8186 19.7377 29.3361C19.2434 28.8535 18.6667 28.4298 18.0076 28.065C17.3485 27.6884 16.6129 27.4 15.8008 27.1999C15.0004 26.9998 14.1354 26.8998 13.2056 26.8998C10.3573 26.8998 7.96217 27.8472 6.02018 29.7421C4.08996 31.637 3.12484 34.0968 3.12484 37.1216C3.12484 40.1346 4.09584 42.6179 6.03784 44.5716C7.97983 46.5136 10.3514 47.4846 13.1526 47.4846C15.8008 47.4846 17.9664 46.7549 19.6494 45.2955C21.3325 43.8243 22.2741 41.7882 22.4742 39.1871H13.2762V36.3448H25.5284L25.5637 38.2514C25.5637 41.8294 24.3985 44.7482 22.0681 47.0079C19.7377 49.2677 16.76 50.3975 13.1349 50.3975Z" fill="#272727"/>
<path d="M30.0797 49.8326V24.5518H38.6597C40.8842 24.5518 42.7615 25.258 44.2915 26.6703C45.8216 28.0709 46.5866 29.8716 46.5866 32.0725C46.5866 34.344 45.8098 36.1977 44.2562 37.6336C42.7026 39.0577 40.6371 39.7697 38.0595 39.7697H31.7039V36.9097H38.4655C39.8544 36.9097 41.0372 36.4625 42.0141 35.568C42.991 34.6735 43.4794 33.5084 43.4794 32.0725C43.4794 30.7425 43.0086 29.6421 42.0671 28.7711C41.1373 27.9002 40.0074 27.4647 38.6774 27.4647H33.1516V49.8326H30.0797ZM44.0797 49.8326L36.4176 38.3044L39.7896 38.1279L47.8224 49.8326H44.0797Z" fill="#272727"/>
<path d="M60.6628 50.3975C57.8616 50.3975 55.6018 49.4854 53.8834 47.6611C52.1651 45.8369 51.3059 43.4418 51.3059 40.4759V24.5518H54.3778V40.5995C54.3778 42.718 54.9309 44.3951 56.0373 45.6309C57.1554 46.8667 58.6972 47.4846 60.6628 47.4846C62.6283 47.4846 64.1701 46.8726 65.2882 45.6486C66.4181 44.4128 66.9831 42.7297 66.9831 40.5995V24.5518H70.0549V40.4759C70.0549 43.5124 69.2016 45.9251 67.495 47.7141C65.8002 49.5031 63.5228 50.3975 60.6628 50.3975Z" fill="#272727"/>
<path d="M75.973 49.8326V24.5518H84.4472C86.8717 24.5518 88.8196 25.305 90.2908 26.8115C91.7738 28.318 92.5153 30.2718 92.5153 32.6727C92.5153 35.0502 91.7562 36.9509 90.2379 38.375C88.7314 39.7991 86.7305 40.5112 84.2353 40.5112H77.6326V37.6865H84.253C85.8066 37.6865 87.0542 37.2334 87.9958 36.3271C88.9373 35.4091 89.4081 34.1969 89.4081 32.6904C89.4081 31.1604 88.9491 29.9069 88.0311 28.93C87.1248 27.9532 85.9184 27.4647 84.4119 27.4647H79.0449V49.8326H75.973Z" fill="#272727"/>
<path d="M109.039 50.3975C105.355 50.3975 102.266 49.1323 99.7707 46.6019C97.2756 44.0597 96.028 40.9055 96.028 37.1392C96.028 33.3965 97.2756 30.2718 99.7707 27.7649C102.278 25.2462 105.367 23.9869 109.039 23.9869C112.688 23.9869 115.766 25.2344 118.273 27.7296C120.78 30.2247 122.033 33.3612 122.033 37.1392C122.033 40.8819 120.785 44.0303 118.29 46.5842C115.807 49.1264 112.723 50.3975 109.039 50.3975ZM109.039 47.4846C111.852 47.4846 114.2 46.5136 116.083 44.5716C117.967 42.6297 118.908 40.1522 118.908 37.1392C118.908 34.1263 117.955 31.6664 116.048 29.7598C114.141 27.8531 111.805 26.8998 109.039 26.8998C106.25 26.8998 103.902 27.859 101.995 29.7774C100.1 31.6841 99.1528 34.138 99.1528 37.1392C99.1528 40.1522 100.094 42.6297 101.978 44.5716C103.872 46.5136 106.226 47.4846 109.039 47.4846Z" fill="#272727"/>
<path d="M227.241 12.7732H259.335V75.9466H272.028V12.7732H303.079V0.138472H227.241V12.7732Z" fill="#272727"/>
<path d="M384 12.7732V0.138472H308.161V12.7732H308.028V75.9466H308.161V76H383.893V63.2852H320.721V44.3732H371.36V31.6584H320.721V12.7732H384Z" fill="#272727"/>
<path d="M208.082 4.72799C202.427 1.98756 196.29 0.381301 190.017 0H151.376V75.9684H189.643C196.028 75.6981 202.292 74.1351 208.055 71.3739C213.448 68.7839 218.058 64.8115 221.416 59.8611C225.602 53.3769 227.726 45.7781 227.509 38.0643C227.726 30.3505 225.602 22.7518 221.416 16.2675C218.079 11.3024 213.475 7.31853 208.082 4.72799ZM202.737 59.8611C198.508 61.9335 193.895 63.1068 189.189 63.307H164.016V12.7682H189.296C193.991 12.9827 198.592 14.1553 202.817 16.2141C210.968 20.4078 214.923 27.5399 214.923 38.0376C214.923 48.5353 210.941 55.6674 202.79 59.8611H202.737Z" fill="#272727"/>
</svg>
